# xmcd
#
# Track frame offsets:
#	150
#	9601
#	21715
#	33091
#	43741
#	56050
#	67610
#	78566
#	90488
#	104885
#	117259
#	129276
#	146299
#	158071
#	169995
#	181654
#	194478
#	205053
#	216900
#	230098
#
# Disc length: 3223 seconds
#
# Revision: 1
# Processed by: cddbd v1.5.1PL0 Copyright (c) Steve Scherf et al.
# Submitted via: audiograbber 1.81.02
#
DISCID=170c9514
DTITLE=Otis Redding - The Ultimate
DYEAR=1986
DGENRE=Soul
TTITLE0=Respect
TTITLE1=Sitting On The Dock Of The Bay
TTITLE2=These Arms Of Mine
TTITLE3=Pain In My Heart
TTITLE4=Come To Me
TTITLE5=Security
TTITLE6=That's How Strong My Love Is
TTITLE7=Mr. Pitiful
TTITLE8=I've Been Loving You Too Long
TTITLE9=(I Can't Get No) Satisfaction
TTITLE10=Fa-Fa-Fa-Fa-Fa (Sad Song)
TTITLE11=Try A Little Tenderness
TTITLE12=Chained And Bound
TTITLE13=Shake
TTITLE14=Ole Man Trouble
TTITLE15=Let Me Come On Home
TTITLE16=Open The Door
TTITLE17=That's What My Heart Needs
TTITLE18=Tramp
TTITLE19=I Can't Turn You Loose
EXTD=
EXTT0=
EXTT1=
EXTT2=
EXTT3=
EXTT4=
EXTT5=
EXTT6=
EXTT7=
EXTT8=
EXTT9=
EXTT10=
EXTT11=
EXTT12=
EXTT13=
EXTT14=
EXTT15=
EXTT16=
EXTT17=
EXTT18=
EXTT19=
PLAYORDER=
